<svg width="66" height="66" viewBox="0 0 66 66" fill="none" xmlns="http://www.w3.org/2000/svg">
<path opacity="0.28" fill-rule="evenodd" clip-rule="evenodd" d="M66.4999 131.435C102.795 131.435 132.218 102.012 132.218 65.7176C132.218 29.4228 102.795 0 66.4999 0C30.2051 0 0.782349 29.4228 0.782349 65.7176C0.782349 102.012 30.2051 131.435 66.4999 131.435ZM79.4609 65.7175C79.4609 72.8757 73.6581 78.6786 66.4999 78.6786C59.3417 78.6786 53.5389 72.8757 53.5389 65.7175C53.5389 58.5594 59.3417 52.7565 66.4999 52.7565C73.6581 52.7565 79.4609 58.5594 79.4609 65.7175ZM98.4609 65.7175C98.4609 83.3691 84.1515 97.6786 66.4999 97.6786C48.8483 97.6786 34.5389 83.3691 34.5389 65.7175C34.5389 48.066 48.8483 33.7565 66.4999 33.7565C84.1515 33.7565 98.4609 48.066 98.4609 65.7175Z" fill="#E0E0E0"/>
</svg>
